# xmcd
#
# Track frame offsets:
#	150
#	22389
#	47400
#	73243
#	99233
#	108697
#	130986
#	153711
#	178514
#	203564
#	234095
#	257959
#	282351
#
# Disc length: 3874 seconds
#
# Revision: 12
# Processed by: cddbd v1.5.2PL0 Copyright (c) Steve Scherf et al.
# Submitted via: audiograbber 1.83.01
#
DISCID=bb0f200d
DTITLE=Iny Lorentz - Die Wanderhure
DYEAR=2004
DGENRE=Hörbuch
TTITLE0=Die Wanderhure [CD1, 01)
TTITLE1=Die Wanderhure [CD1, 02)
TTITLE2=Die Wanderhure [CD1, 03)
TTITLE3=Die Wanderhure [CD1, 04)
TTITLE4=Die Wanderhure [CD1, 05)
TTITLE5=Die Wanderhure [CD1, 06)
TTITLE6=Die Wanderhure [CD1, 07)
TTITLE7=Die Wanderhure [CD1, 08)
TTITLE8=Die Wanderhure [CD1, 09)
TTITLE9=Die Wanderhure [CD1, 10)
TTITLE10=Die Wanderhure [CD1, 11)
TTITLE11=Die Wanderhure [CD1, 12)
TTITLE12=Die Wanderhure [CD1, 13)
EXTD=gelesen von Anne Moll
EXTT0=
EXTT1=
EXTT2=
EXTT3=
EXTT4=
EXTT5=
EXTT6=
EXTT7=
EXTT8=
EXTT9=
EXTT10=
EXTT11=
EXTT12=
PLAYORDER=
